<svg xmlns="http://www.w3.org/2000/svg" style="height: 0; width: 0; position: absolute;">
  <symbol id="angleIcon" viewBox="0 0 20 20">
    <path d="M4.516 7.548c0.436-0.446 1.043-0.481 1.576 0l3.908 3.747 3.908-3.747c0.533-0.481 1.141-0.446 1.574 0 0.436
    0.445 0.408 1.197 0 1.615-0.406 0.418-4.695 4.502-4.695 4.502-0.217 0.223-0.502 0.335-0.787 0.335s-0.57-0.112-0.789-0.335c0
    0-4.287-4.084-4.695-4.502s-0.436-1.17 0-1.615z" fill="currentColor"></path>
  </symbol>

  <symbol
    fill="none"
    id="returnIcon"
    stroke-linecap="round"
    stroke-linejoin="round"
    stroke-width="2"
    stroke="currentColor"
    viewBox="0 0 24 24"
  >
    <path d="M20 5v6a3 3 0 0 1-3 3H4"></path>
    <path d="M8 10l-4 4 4 4"></path>
  </symbol>

  <symbol id="checkmarkIcon" viewBox="0 0 24 24">
    <style>
      @keyframes checkDraw {
        0% { stroke-dashoffset: 40; }
        100% { stroke-dashoffset: 0; }
      }
    </style>

    <polyline
      fill="none"
      points="2,13 10,21 22,2"
      stroke="currentColor"
      stroke-width="5"
      stroke-linecap="round"
      stroke-linejoin="round"
      stroke-miterlimit="10"
      stroke-dasharray="40"
      stroke-dashoffset="0"
      style="
        animation-duration: 0.25s;
        animation-fill-mode: forwards;
        animation-name: checkDraw;
        animation-timing-function: ease-in-out;
      "
    />
  </symbol>

  <symbol
    fill="none"
    id="exclamationIcon"
    stroke-linecap="round"
    stroke-linejoin="round"
    stroke-width="2"
    stroke="currentColor"
    viewBox="0 0 24 24"
  >
    <circle cx="12" cy="12" r="10" />
    <line x1="12" x2="12" y1="8" y2="12" />
    <line x1="12" x2="12.01" y1="16" y2="16" />
  </symbol>
</svg>