<svg xmlns="http://www.w3.org/2000/svg" style="height: 0; width: 0; position: absolute;">
  <symbol id="angleIcon" viewBox="0 0 20 20">
    <path d="M4.516 7.548c0.436-0.446 1.043-0.481 1.576 0l3.908 3.747 3.908-3.747c0.533-0.481 1.141-0.446 1.574 0 0.436
    0.445 0.408 1.197 0 1.615-0.406 0.418-4.695 4.502-4.695 4.502-0.217 0.223-0.502 0.335-0.787 0.335s-0.57-0.112-0.789-0.335c0
    0-4.287-4.084-4.695-4.502s-0.436-1.17 0-1.615z" fill="currentColor" stroke-width="2"></path>
  </symbol>

  <symbol
    fill="none"
    id="moveRightIcon"
    stroke-linecap="round"
    stroke-linejoin="round"
    stroke-width="3"
    stroke="currentColor"
    style="transform: translateY(1px)"
    viewBox="0 0 24 24"
  >
    <path d="M18 8L22 12L18 16" />
    <path d="M2 12H22" />
  </symbol>

  <symbol
    fill="none"
    id="refreshIcon"
    stroke-linecap="round"
    stroke-linejoin="round"
    stroke-width="2"
    stroke="currentColor"
    viewBox="0 0 24 24"
  >
    <path d="M3 12a9 9 0 0 1 9-9 9.75 9.75 0 0 1 6.74 2.74L21 8" />
    <path d="M21 3v5h-5" />
    <path d="M21 12a9 9 0 0 1-9 9 9.75 9.75 0 0 1-6.74-2.74L3 16" />
    <path d="M8 16H3v5" />
  </symbol>

  <symbol
    fill="none"
    id="returnIcon"
    stroke-linecap="round"
    stroke-linejoin="round"
    stroke-width="2"
    stroke="currentColor"
    viewBox="0 0 24 24"
  >
    <path d="M20 5v6a3 3 0 0 1-3 3H4"></path>
    <path d="M8 10l-4 4 4 4"></path>
  </symbol>

  <symbol id="checkmarkIcon" viewBox="0 0 24 24">
    <style>
      @keyframes checkDraw {
        0% { stroke-dashoffset: 40; }
        100% { stroke-dashoffset: 0; }
      }
    </style>

    <polyline
      fill="none"
      points="2,13 10,21 22,2"
      stroke="currentColor"
      stroke-width="5"
      stroke-linecap="round"
      stroke-linejoin="round"
      stroke-miterlimit="10"
      stroke-dasharray="40"
      stroke-dashoffset="0"
      style="
        animation-duration: 0.25s;
        animation-fill-mode: forwards;
        animation-name: checkDraw;
        animation-timing-function: ease-in-out;
      "
    />
  </symbol>

  <symbol
    id="exclamationIcon"
    viewBox="0 0 128 512"
  >
    <path
      d="M64 432c22.1 0 40 17.9 40 40s-17.9 40-40 40-40-17.9-40-40c0-22.1 17.9-40 40-40zM64 0c26.5 0
      48 21.5 48 48 0 .6 0 1.1 0 1.7l-16 304c-.9 17-15 30.3-32 30.3S33 370.7 32 353.7L16 49.7c0-.6 0-1.1
      0-1.7 0-26.5 21.5-48 48-48z"
    />
  </symbol>
</svg>